<svg xmlns="http://www.w3.org/2000/svg" viewBox="0 0 1920 714" role="img" aria-label="Bike TC" fill="currentColor" fill-rule="evenodd"><path d="M 412 260 L 412 262 L 412 624 L 413 626 L 549 626 L 550 625 L 550 261 L 549 260 Z M 1314 360 L 1313 360 L 1312 357 L 1311 356 L 1308 351 L 1308 350 L 1308 350 L 1306 347 L 1305 346 L 1304 344 L 1303 342 L 1302 341 L 1300 338 L 1298 336 L 1298 336 L 1296 334 L 1296 334 L 1295 332 L 1295 332 L 1293 330 L 1293 329 L 1292 328 L 1292 327 L 1289 324 L 1289 324 L 1286 322 L 1286 321 L 1281 316 L 1281 315 L 1270 304 L 1270 304 L 1264 298 L 1264 298 L 1260 295 L 1260 295 L 1258 294 L 1255 292 L 1254 290 L 1253 290 L 1250 287 L 1248 286 L 1246 284 L 1246 284 L 1237 278 L 1236 278 L 1233 276 L 1228 274 L 1227 272 L 1222 270 L 1220 269 L 1214 266 L 1214 266 L 1207 262 L 1206 262 L 1204 261 L 1202 261 L 1201 260 L 1200 260 L 1196 258 L 1192 257 L 1190 256 L 1189 256 L 1188 255 L 1186 255 L 1184 254 L 1183 254 L 1182 254 L 1180 253 L 1178 252 L 1176 252 L 1174 251 L 1172 251 L 1170 250 L 1168 250 L 1166 249 L 1164 249 L 1162 248 L 1158 248 L 1156 247 L 1153 247 L 1152 246 L 1151 246 L 1150 246 L 1146 246 L 1146 246 L 1144 246 L 1143 245 L 1136 245 L 1136 244 L 1134 244 L 1133 244 L 1099 244 L 1098 244 L 1096 244 L 1096 245 L 1088 245 L 1088 246 L 1086 246 L 1086 246 L 1082 246 L 1081 246 L 1080 246 L 1079 247 L 1076 247 L 1076 248 L 1074 248 L 1074 248 L 1070 248 L 1068 249 L 1066 249 L 1064 250 L 1062 250 L 1060 251 L 1058 251 L 1056 252 L 1054 252 L 1053 253 L 1052 253 L 1050 254 L 1048 254 L 1048 254 L 1046 254 L 1046 255 L 1045 255 L 1044 256 L 1044 256 L 1043 256 L 1039 257 L 1038 258 L 1036 258 L 1035 259 L 1032 260 L 1028 262 L 1026 262 L 1023 264 L 1022 264 L 1007 272 L 1006 272 L 1004 274 L 1001 276 L 1000 276 L 997 278 L 993 280 L 992 281 L 992 281 L 990 282 L 990 282 L 989 283 L 986 285 L 984 286 L 984 286 L 982 288 L 982 288 L 980 290 L 980 290 L 978 291 L 978 291 L 976 293 L 975 293 L 974 294 L 973 294 L 970 298 L 970 298 L 966 300 L 966 300 L 958 308 L 958 308 L 948 319 L 948 320 L 944 322 L 944 323 L 941 326 L 941 327 L 940 328 L 940 329 L 937 332 L 936 334 L 934 336 L 933 338 L 932 339 L 932 340 L 928 345 L 927 346 L 925 349 L 924 350 L 924 352 L 923 353 L 920 356 L 919 360 L 918 361 L 911 375 L 911 376 L 909 380 L 909 380 L 906 386 L 906 386 L 905 388 L 905 390 L 904 392 L 904 393 L 904 394 L 904 394 L 903 395 L 903 396 L 902 396 L 902 398 L 902 398 L 902 399 L 901 401 L 901 402 L 900 403 L 900 404 L 900 404 L 900 406 L 899 408 L 899 410 L 898 410 L 898 412 L 899 412 L 899 415 L 898 416 L 898 417 L 898 418 L 898 419 L 898 420 L 898 421 L 897 422 L 897 424 L 896 424 L 896 426 L 896 426 L 896 428 L 896 429 L 896 432 L 895 432 L 895 434 L 894 435 L 894 438 L 894 438 L 894 442 L 894 442 L 894 446 L 893 446 L 893 452 L 892 452 L 892 458 L 892 459 L 892 474 L 892 474 L 891 474 L 890 473 L 889 471 L 889 470 L 888 468 L 888 466 L 886 464 L 886 463 L 884 460 L 884 460 L 883 457 L 883 456 L 882 454 L 882 452 L 880 450 L 880 449 L 878 446 L 878 446 L 877 443 L 877 442 L 876 440 L 876 438 L 874 436 L 874 435 L 872 432 L 872 432 L 871 429 L 871 428 L 870 426 L 870 424 L 868 421 L 868 420 L 866 418 L 866 416 L 864 414 L 864 413 L 863 410 L 863 410 L 862 407 L 862 406 L 860 404 L 860 402 L 857 396 L 857 396 L 856 394 L 856 392 L 872 359 L 874 358 L 884 338 L 884 336 L 884 336 L 886 334 L 886 334 L 886 332 L 886 332 L 888 330 L 888 330 L 888 328 L 896 312 L 898 311 L 898 310 L 898 309 L 898 308 L 900 307 L 900 306 L 902 302 L 902 301 L 912 280 L 914 280 L 914 278 L 916 274 L 916 274 L 922 262 L 922 260 L 922 260 L 781 260 L 780 260 L 776 268 L 776 270 L 773 276 L 772 276 L 772 278 L 771 278 L 771 280 L 770 280 L 770 282 L 769 282 L 769 284 L 768 284 L 768 286 L 765 292 L 764 292 L 764 294 L 763 294 L 763 296 L 762 296 L 762 298 L 761 298 L 761 300 L 760 300 L 760 302 L 757 308 L 756 308 L 756 310 L 732 356 L 732 357 L 731 359 L 731 360 L 730 361 L 730 362 L 729 363 L 729 364 L 728 365 L 728 366 L 727 367 L 727 368 L 726 369 L 726 370 L 725 371 L 725 372 L 724 373 L 724 374 L 723 375 L 723 376 L 722 377 L 722 378 L 721 379 L 721 380 L 720 381 L 720 382 L 719 383 L 719 384 L 718 386 L 718 388 L 718 389 L 719 392 L 720 393 L 721 397 L 722 398 L 723 402 L 724 404 L 724 405 L 724 406 L 724 406 L 725 407 L 726 411 L 728 415 L 728 416 L 729 418 L 730 422 L 731 424 L 732 428 L 733 429 L 734 433 L 735 434 L 735 436 L 736 436 L 736 438 L 737 440 L 738 444 L 739 446 L 740 450 L 741 451 L 741 452 L 742 452 L 742 454 L 742 454 L 743 458 L 744 460 L 745 464 L 746 465 L 747 469 L 748 470 L 748 472 L 748 472 L 749 474 L 750 476 L 751 480 L 752 482 L 753 486 L 754 487 L 754 488 L 754 488 L 754 490 L 755 490 L 756 494 L 758 498 L 758 500 L 759 501 L 760 505 L 761 506 L 762 510 L 763 512 L 764 516 L 765 518 L 765 518 L 766 519 L 766 522 L 767 523 L 768 527 L 769 528 L 770 532 L 771 534 L 771 535 L 772 536 L 772 536 L 772 537 L 773 541 L 774 542 L 775 546 L 776 548 L 777 552 L 778 554 L 779 558 L 780 559 L 781 563 L 782 564 L 783 568 L 784 570 L 784 571 L 784 572 L 786 576 L 786 577 L 787 580 L 788 581 L 788 582 L 789 584 L 790 588 L 791 590 L 792 594 L 793 595 L 794 599 L 795 600 L 796 604 L 797 606 L 798 610 L 799 612 L 800 616 L 801 617 L 801 618 L 802 618 L 802 622 L 804 625 L 954 625 L 956 626 L 957 627 L 957 628 L 966 637 L 967 637 L 974 643 L 974 643 L 976 645 L 976 645 L 978 647 L 979 647 L 984 652 L 988 654 L 990 655 L 990 655 L 996 659 L 997 660 L 998 660 L 1000 661 L 1003 664 L 1006 664 L 1006 666 L 1011 668 L 1012 668 L 1020 672 L 1021 672 L 1026 675 L 1026 675 L 1029 676 L 1030 676 L 1032 678 L 1032 678 L 1036 680 L 1040 680 L 1042 682 L 1044 682 L 1045 682 L 1046 682 L 1048 684 L 1050 684 L 1051 684 L 1053 684 L 1054 686 L 1056 686 L 1058 686 L 1060 686 L 1062 688 L 1064 688 L 1066 688 L 1069 688 L 1071 690 L 1074 690 L 1076 690 L 1080 690 L 1080 691 L 1082 691 L 1082 692 L 1086 692 L 1087 692 L 1089 692 L 1090 692 L 1096 692 L 1096 693 L 1100 693 L 1101 694 L 1132 694 L 1132 693 L 1136 693 L 1136 692 L 1143 692 L 1144 692 L 1146 692 L 1146 692 L 1150 692 L 1151 691 L 1152 691 L 1153 690 L 1156 690 L 1158 690 L 1162 690 L 1164 688 L 1166 688 L 1168 688 L 1170 688 L 1172 686 L 1174 686 L 1176 686 L 1178 686 L 1180 684 L 1181 684 L 1183 684 L 1184 684 L 1186 682 L 1188 682 L 1189 682 L 1190 682 L 1194 680 L 1196 680 L 1198 678 L 1198 678 L 1200 678 L 1201 678 L 1202 676 L 1204 676 L 1207 674 L 1208 674 L 1214 672 L 1214 672 L 1220 669 L 1220 668 L 1226 666 L 1227 664 L 1230 664 L 1230 662 L 1233 662 L 1236 660 L 1237 659 L 1238 658 L 1238 658 L 1240 657 L 1240 657 L 1241 656 L 1242 656 L 1242 655 L 1246 653 L 1248 652 L 1248 652 L 1250 650 L 1250 650 L 1252 648 L 1252 648 L 1254 647 L 1254 647 L 1256 646 L 1256 646 L 1258 644 L 1258 644 L 1264 638 L 1265 638 L 1270 634 L 1270 634 L 1281 622 L 1281 622 L 1286 616 L 1286 616 L 1292 610 L 1292 610 L 1293 608 L 1293 608 L 1295 606 L 1295 606 L 1300 600 L 1300 600 L 1300 598 L 1302 596 L 1303 595 L 1303 594 L 1305 592 L 1306 590 L 1308 586 L 1311 582 L 1312 580 L 1313 578 L 1314 577 L 1322 560 L 1324 558 L 1324 557 L 1324 556 L 1324 554 L 1325 554 L 1326 552 L 1326 550 L 1326 549 L 1328 548 L 1328 546 L 1328 546 L 1329 542 L 1330 540 L 1330 538 L 1331 537 L 1331 536 L 1332 536 L 1332 534 L 1332 532 L 1332 531 L 1334 529 L 1334 528 L 1334 527 L 1334 526 L 1334 525 L 1334 524 L 1335 523 L 1335 522 L 1336 521 L 1336 520 L 1336 519 L 1336 518 L 1336 517 L 1336 515 L 1337 514 L 1337 512 L 1338 512 L 1338 510 L 1338 510 L 1338 507 L 1338 506 L 1338 504 L 1339 504 L 1339 501 L 1340 500 L 1340 497 L 1340 496 L 1340 493 L 1340 492 L 1340 487 L 1341 486 L 1341 480 L 1342 480 L 1342 458 L 1341 458 L 1341 451 L 1340 450 L 1340 445 L 1340 444 L 1340 437 L 1339 436 L 1339 434 L 1338 434 L 1338 431 L 1338 430 L 1338 428 L 1338 428 L 1338 426 L 1337 425 L 1336 420 L 1336 420 L 1336 418 L 1336 418 L 1336 416 L 1335 416 L 1335 414 L 1334 414 L 1334 412 L 1334 412 L 1334 408 L 1332 406 L 1332 405 L 1332 404 L 1332 404 L 1332 403 L 1332 402 L 1330 400 L 1330 398 L 1329 396 L 1329 394 L 1328 394 L 1328 390 L 1326 388 L 1326 388 L 1326 386 L 1326 385 L 1324 384 L 1324 382 L 1324 381 L 1324 380 L 1322 376 L 1322 376 Z M 1104 270 L 1114 270 L 1114 270 L 1122 270 L 1122 270 L 1133 270 L 1134 271 L 1142 272 L 1143 272 L 1146 272 L 1146 272 L 1150 272 L 1150 273 L 1152 273 L 1152 274 L 1155 274 L 1156 274 L 1160 274 L 1162 276 L 1164 276 L 1166 276 L 1168 276 L 1170 278 L 1171 278 L 1172 278 L 1172 278 L 1173 278 L 1174 278 L 1174 279 L 1176 279 L 1176 280 L 1177 280 L 1178 280 L 1178 280 L 1179 280 L 1183 282 L 1184 282 L 1186 282 L 1187 284 L 1188 284 L 1190 284 L 1190 284 L 1194 286 L 1195 286 L 1200 290 L 1202 290 L 1204 290 L 1204 292 L 1209 294 L 1210 294 L 1212 296 L 1214 296 L 1216 298 L 1218 300 L 1220 300 L 1221 301 L 1222 301 L 1222 302 L 1223 302 L 1224 303 L 1228 305 L 1229 306 L 1231 308 L 1232 309 L 1233 309 L 1234 310 L 1235 310 L 1237 312 L 1238 312 L 1240 314 L 1240 314 L 1248 322 L 1248 322 L 1260 333 L 1260 334 L 1266 341 L 1266 342 L 1268 344 L 1268 344 L 1274 352 L 1274 352 L 1282 362 L 1282 364 L 1284 366 L 1285 368 L 1286 370 L 1288 374 L 1289 375 L 1292 381 L 1292 382 L 1296 389 L 1296 390 L 1296 392 L 1296 392 L 1298 394 L 1298 396 L 1299 398 L 1299 399 L 1300 401 L 1300 402 L 1300 403 L 1300 404 L 1301 404 L 1301 406 L 1302 408 L 1302 409 L 1303 411 L 1303 413 L 1304 415 L 1304 417 L 1304 418 L 1304 419 L 1305 420 L 1305 422 L 1306 422 L 1306 424 L 1306 424 L 1306 427 L 1306 428 L 1306 430 L 1307 430 L 1308 438 L 1308 438 L 1308 444 L 1308 445 L 1308 470 L 1308 470 L 1308 482 L 1307 483 L 1094 483 L 1092 482 L 1092 480 L 1092 478 L 1092 476 L 1091 476 L 1091 474 L 1090 474 L 1090 471 L 1090 470 L 1090 469 L 1090 468 L 1090 466 L 1089 465 L 1089 462 L 1088 462 L 1088 447 L 1089 446 L 1090 438 L 1090 438 L 1090 436 L 1090 436 L 1090 433 L 1092 431 L 1092 429 L 1092 427 L 1092 426 L 1093 425 L 1093 424 L 1094 424 L 1094 420 L 1096 418 L 1169 418 L 1170 417 L 1170 416 L 1170 416 L 1170 414 L 1169 414 L 1168 410 L 1168 409 L 1167 406 L 1164 400 L 1163 400 L 1161 396 L 1152 387 L 1152 387 L 1148 384 L 1144 382 L 1142 382 L 1141 381 L 1140 381 L 1138 380 L 1136 380 L 1134 379 L 1132 379 L 1132 378 L 1129 378 L 1128 378 L 1118 378 L 1117 378 L 1111 379 L 1109 380 L 1107 380 L 1106 380 L 1104 381 L 1102 382 L 1102 382 L 1098 384 L 1096 385 L 1095 386 L 1094 386 L 1092 388 L 1090 390 L 1090 390 L 1082 398 L 1082 398 L 1078 404 L 1077 406 L 1076 406 L 1071 416 L 1071 418 L 1070 419 L 1070 420 L 1069 422 L 1069 422 L 1068 423 L 1068 424 L 1068 424 L 1068 426 L 1067 428 L 1067 429 L 1066 430 L 1066 431 L 1066 432 L 1066 434 L 1066 434 L 1066 436 L 1065 436 L 1064 442 L 1064 442 L 1064 448 L 1064 448 L 1064 462 L 1064 462 L 1064 468 L 1064 468 L 1064 471 L 1065 472 L 1065 474 L 1066 475 L 1066 476 L 1066 477 L 1066 480 L 1067 482 L 1067 483 L 1068 485 L 1068 486 L 1068 487 L 1069 490 L 1070 491 L 1070 492 L 1072 495 L 1072 496 L 1077 507 L 1078 508 L 1078 510 L 1080 510 L 1080 512 L 1084 516 L 1084 516 L 1091 524 L 1092 524 L 1095 527 L 1103 531 L 1104 531 L 1104 532 L 1106 532 L 1108 532 L 1109 532 L 1110 533 L 1111 533 L 1112 534 L 1114 534 L 1115 534 L 1128 534 L 1128 534 L 1131 534 L 1132 533 L 1133 533 L 1134 532 L 1135 532 L 1136 532 L 1138 532 L 1140 530 L 1140 530 L 1146 528 L 1149 526 L 1150 525 L 1154 522 L 1154 522 L 1162 514 L 1164 514 L 1166 517 L 1166 518 L 1168 520 L 1168 520 L 1171 523 L 1171 524 L 1174 526 L 1174 526 L 1176 530 L 1176 530 L 1182 536 L 1182 536 L 1184 538 L 1184 539 L 1187 542 L 1187 542 L 1190 545 L 1190 546 L 1192 548 L 1192 548 L 1194 551 L 1194 552 L 1198 554 L 1198 555 L 1202 560 L 1202 561 L 1205 564 L 1205 564 L 1208 567 L 1208 568 L 1210 570 L 1210 570 L 1213 573 L 1213 574 L 1216 576 L 1216 576 L 1218 580 L 1218 580 L 1220 582 L 1220 582 L 1229 592 L 1229 592 L 1232 595 L 1232 596 L 1234 598 L 1234 598 L 1236 601 L 1236 602 L 1240 604 L 1240 605 L 1242 608 L 1242 608 L 1238 611 L 1236 612 L 1233 615 L 1232 615 L 1222 622 L 1221 622 L 1218 625 L 1215 626 L 1214 627 L 1210 629 L 1208 630 L 1202 633 L 1202 633 L 1198 635 L 1197 635 L 1194 637 L 1192 637 L 1191 638 L 1187 639 L 1186 640 L 1184 640 L 1184 640 L 1183 640 L 1182 641 L 1182 641 L 1181 642 L 1180 642 L 1180 642 L 1178 642 L 1178 642 L 1177 642 L 1175 644 L 1172 644 L 1170 645 L 1168 645 L 1168 646 L 1166 646 L 1166 646 L 1164 646 L 1162 647 L 1159 647 L 1158 648 L 1157 648 L 1156 648 L 1154 648 L 1153 648 L 1151 648 L 1150 649 L 1147 649 L 1146 650 L 1144 650 L 1143 650 L 1138 650 L 1138 650 L 1132 650 L 1131 651 L 1110 651 L 1109 650 L 1102 650 L 1102 650 L 1097 650 L 1096 650 L 1094 650 L 1093 649 L 1090 649 L 1089 648 L 1087 648 L 1086 648 L 1084 648 L 1084 648 L 1082 648 L 1082 647 L 1079 647 L 1078 646 L 1077 646 L 1076 646 L 1074 646 L 1072 645 L 1070 645 L 1070 644 L 1067 644 L 1065 643 L 1064 643 L 1062 642 L 1060 642 L 1059 641 L 1058 641 L 1056 640 L 1055 640 L 1054 640 L 1052 639 L 1050 638 L 1050 638 L 1048 637 L 1047 637 L 1037 632 L 1036 632 L 1035 631 L 1028 628 L 1028 627 L 1025 626 L 1024 625 L 1020 623 L 1019 622 L 1018 622 L 1018 621 L 1017 621 L 1016 620 L 1016 620 L 1014 619 L 1011 617 L 1010 616 L 1009 616 L 1004 612 L 1004 612 L 999 608 L 998 608 L 991 600 L 990 600 L 980 590 L 980 589 L 972 582 L 972 581 L 970 579 L 970 578 L 964 571 L 962 568 L 961 566 L 961 566 L 959 563 L 958 562 L 956 559 L 956 556 L 954 554 L 952 550 L 950 548 L 946 538 L 946 538 L 944 534 L 944 533 L 942 530 L 942 530 L 941 528 L 940 526 L 940 524 L 940 523 L 938 522 L 938 520 L 938 520 L 938 519 L 938 518 L 938 518 L 936 516 L 936 514 L 936 514 L 936 510 L 934 508 L 934 507 L 934 505 L 934 503 L 933 502 L 932 498 L 932 498 L 932 496 L 932 496 L 932 494 L 931 493 L 931 492 L 930 491 L 930 488 L 930 488 L 930 485 L 930 484 L 929 476 L 928 476 L 928 470 L 928 470 L 928 444 L 928 444 L 928 438 L 929 438 L 929 434 L 930 434 L 930 430 L 930 430 L 930 428 L 930 427 L 930 424 L 931 424 L 931 422 L 932 422 L 932 420 L 932 419 L 932 415 L 934 413 L 934 412 L 934 411 L 934 408 L 935 407 L 935 406 L 936 406 L 936 404 L 936 404 L 936 403 L 936 402 L 936 402 L 937 401 L 937 400 L 938 400 L 938 396 L 940 392 L 940 390 L 942 388 L 942 387 L 944 382 L 944 382 L 948 376 L 948 374 L 950 371 L 951 370 L 952 368 L 953 366 L 955 362 L 956 362 L 956 361 L 957 360 L 957 360 L 958 358 L 958 358 L 959 357 L 961 354 L 962 352 L 962 352 L 964 350 L 964 350 L 966 348 L 966 348 L 967 346 L 967 346 L 968 344 L 968 344 L 971 341 L 971 340 L 978 333 L 978 332 L 988 322 L 988 322 L 996 315 L 997 315 L 1002 311 L 1002 311 L 1006 308 L 1008 307 L 1009 306 L 1010 306 L 1020 298 L 1022 298 L 1024 296 L 1028 294 L 1029 293 L 1042 286 L 1043 286 L 1046 284 L 1048 284 L 1049 284 L 1050 284 L 1054 282 L 1055 282 L 1056 281 L 1058 280 L 1060 280 L 1061 280 L 1062 279 L 1062 279 L 1063 278 L 1064 278 L 1066 278 L 1068 278 L 1068 277 L 1071 276 L 1073 276 L 1075 276 L 1076 275 L 1080 274 L 1080 274 L 1082 274 L 1082 274 L 1084 274 L 1085 273 L 1086 273 L 1087 272 L 1090 272 L 1091 272 L 1094 272 L 1094 272 L 1098 272 L 1099 271 L 1103 271 Z M 21 128 L 20 128 L 20 627 L 21 628 L 167 628 L 168 627 L 168 263 L 169 262 L 206 262 L 207 262 L 210 262 L 211 263 L 212 263 L 213 264 L 214 264 L 215 264 L 218 264 L 224 268 L 230 274 L 232 277 L 232 278 L 232 278 L 232 280 L 233 282 L 233 286 L 234 287 L 234 288 L 233 288 L 233 294 L 232 294 L 232 296 L 232 296 L 232 298 L 229 303 L 223 309 L 216 312 L 216 312 L 215 313 L 214 313 L 212 314 L 208 314 L 208 315 L 204 315 L 204 316 L 200 316 L 200 316 L 194 316 L 193 316 L 193 448 L 194 450 L 235 450 L 236 450 L 237 450 L 238 450 L 240 451 L 244 452 L 246 454 L 246 454 L 252 460 L 254 465 L 255 468 L 256 468 L 256 472 L 256 472 L 256 475 L 256 476 L 256 479 L 255 480 L 255 482 L 254 483 L 254 484 L 252 488 L 251 489 L 251 490 L 247 494 L 246 494 L 244 496 L 240 498 L 238 498 L 236 499 L 234 499 L 234 500 L 230 500 L 230 500 L 194 500 L 193 500 L 193 627 L 194 628 L 240 628 L 241 628 L 249 628 L 250 627 L 254 627 L 254 626 L 258 626 L 259 626 L 262 626 L 262 626 L 266 626 L 266 625 L 268 625 L 268 624 L 271 624 L 272 624 L 273 624 L 274 624 L 276 624 L 276 623 L 278 623 L 278 622 L 280 622 L 282 622 L 284 622 L 284 621 L 286 621 L 288 620 L 289 620 L 290 620 L 290 620 L 291 619 L 292 619 L 292 618 L 294 618 L 294 618 L 295 618 L 296 618 L 300 616 L 301 616 L 302 616 L 304 614 L 304 614 L 307 613 L 308 613 L 312 610 L 314 610 L 314 610 L 316 610 L 316 608 L 318 608 L 318 608 L 322 606 L 323 605 L 327 603 L 328 602 L 328 602 L 330 601 L 330 601 L 331 600 L 334 598 L 336 596 L 337 596 L 341 592 L 342 592 L 344 590 L 345 590 L 354 580 L 354 580 L 357 577 L 357 576 L 360 574 L 360 574 L 361 572 L 361 572 L 363 570 L 363 569 L 368 562 L 368 560 L 370 558 L 372 554 L 374 552 L 374 552 L 378 542 L 378 540 L 380 539 L 380 538 L 380 538 L 380 536 L 380 536 L 380 535 L 381 534 L 381 534 L 382 533 L 382 532 L 382 530 L 382 528 L 384 526 L 384 524 L 384 522 L 384 520 L 385 520 L 385 518 L 386 518 L 386 516 L 386 515 L 386 513 L 386 512 L 386 510 L 387 509 L 387 506 L 388 506 L 388 501 L 388 500 L 388 495 L 388 494 L 388 475 L 388 474 L 388 466 L 387 465 L 386 460 L 386 459 L 386 458 L 386 457 L 386 454 L 384 452 L 384 450 L 384 448 L 384 447 L 383 446 L 383 446 L 382 445 L 382 441 L 380 440 L 380 438 L 378 434 L 378 434 L 376 428 L 376 427 L 374 426 L 374 425 L 374 424 L 370 418 L 370 417 L 370 416 L 368 416 L 368 415 L 368 414 L 368 414 L 366 412 L 364 409 L 360 404 L 360 403 L 358 400 L 358 400 L 355 398 L 355 397 L 350 392 L 350 392 L 344 386 L 344 386 L 336 378 L 335 378 L 333 376 L 332 376 L 330 374 L 330 374 L 326 371 L 324 370 L 323 368 L 322 368 L 318 366 L 317 365 L 314 363 L 310 361 L 310 360 L 310 358 L 311 357 L 312 357 L 316 352 L 317 352 L 328 340 L 328 340 L 330 338 L 330 337 L 333 334 L 333 334 L 334 332 L 334 332 L 336 330 L 336 330 L 338 328 L 338 326 L 340 325 L 340 324 L 344 320 L 344 317 L 346 316 L 346 314 L 348 312 L 350 306 L 350 306 L 352 302 L 352 301 L 354 297 L 356 293 L 356 292 L 356 290 L 358 288 L 358 286 L 358 286 L 358 283 L 359 282 L 359 281 L 360 280 L 360 278 L 360 278 L 360 276 L 360 276 L 360 274 L 361 273 L 361 271 L 362 270 L 362 263 L 362 262 L 362 256 L 363 255 L 363 242 L 362 242 L 362 236 L 362 235 L 362 228 L 361 228 L 360 224 L 360 223 L 360 222 L 360 221 L 360 219 L 358 217 L 358 216 L 358 214 L 358 212 L 357 212 L 356 210 L 356 208 L 356 207 L 354 206 L 354 204 L 352 199 L 352 198 L 350 197 L 348 191 L 346 190 L 346 190 L 346 188 L 346 188 L 344 187 L 342 184 L 341 182 L 341 182 L 340 180 L 340 180 L 338 178 L 338 177 L 335 174 L 335 174 L 324 162 L 323 162 L 318 158 L 318 158 L 316 156 L 316 156 L 314 155 L 314 155 L 312 154 L 312 154 L 308 150 L 306 150 L 302 148 L 299 146 L 298 145 L 292 142 L 291 142 L 288 140 L 286 140 L 285 139 L 284 139 L 282 138 L 282 138 L 278 136 L 276 136 L 274 135 L 273 135 L 272 134 L 272 134 L 271 134 L 270 134 L 268 133 L 266 133 L 266 132 L 264 132 L 264 132 L 262 132 L 262 132 L 260 132 L 260 131 L 258 131 L 257 130 L 256 130 L 255 130 L 252 130 L 252 130 L 250 130 L 249 129 L 245 129 L 244 128 L 241 128 L 240 128 L 230 128 L 230 128 Z M 577 125 L 576 126 L 576 624 L 576 625 L 712 625 L 713 624 L 713 126 L 712 125 Z M 1120 122 L 1120 200 L 1120 200 L 1212 200 L 1212 200 L 1212 122 L 1212 121 L 1184 121 L 1184 120 L 1124 120 L 1124 121 L 1120 121 Z M 1016 120 L 1016 120 L 1016 199 L 1016 200 L 1094 200 L 1094 199 L 1094 126 L 1095 126 L 1095 122 L 1094 122 L 1094 120 L 1094 120 Z M 926 120 L 925 120 L 925 199 L 926 200 L 986 200 L 986 199 L 986 120 L 986 120 Z M 772 120 L 771 120 L 771 200 L 772 200 L 797 200 L 798 200 L 798 120 L 797 120 Z M 842 119 L 841 120 L 841 200 L 842 200 L 884 200 L 884 200 L 884 120 L 884 119 Z M 471 99 L 470 100 L 468 100 L 468 100 L 466 100 L 466 100 L 462 101 L 462 102 L 460 102 L 460 102 L 456 103 L 452 105 L 452 105 L 450 106 L 444 109 L 444 110 L 442 111 L 440 112 L 440 112 L 434 118 L 433 118 L 430 122 L 430 122 L 426 125 L 426 126 L 424 129 L 424 130 L 422 132 L 421 134 L 420 134 L 418 138 L 418 140 L 416 144 L 416 145 L 416 146 L 415 148 L 414 149 L 414 150 L 414 151 L 414 154 L 414 154 L 414 156 L 413 157 L 413 170 L 414 171 L 414 178 L 414 178 L 415 182 L 416 182 L 416 186 L 417 187 L 418 190 L 421 196 L 422 198 L 424 200 L 426 204 L 426 204 L 430 208 L 430 208 L 436 214 L 436 214 L 440 217 L 443 218 L 444 220 L 446 220 L 448 222 L 448 222 L 452 224 L 453 224 L 457 226 L 458 226 L 459 226 L 462 226 L 462 227 L 464 227 L 464 228 L 470 228 L 470 228 L 476 228 L 476 229 L 486 229 L 486 228 L 492 228 L 492 228 L 494 228 L 495 228 L 498 228 L 498 227 L 500 227 L 500 226 L 502 226 L 502 226 L 504 226 L 504 226 L 508 224 L 510 224 L 510 224 L 516 220 L 518 220 L 520 218 L 525 214 L 526 214 L 528 212 L 528 212 L 535 206 L 535 205 L 538 201 L 538 200 L 540 198 L 541 196 L 542 196 L 544 190 L 544 190 L 546 188 L 546 187 L 546 186 L 546 186 L 546 185 L 546 184 L 548 182 L 548 180 L 548 180 L 548 178 L 548 178 L 548 174 L 549 174 L 549 171 L 550 170 L 550 157 L 549 156 L 549 154 L 548 154 L 548 151 L 548 150 L 548 149 L 548 148 L 548 146 L 547 146 L 546 142 L 545 140 L 545 140 L 542 132 L 540 132 L 538 128 L 537 126 L 537 126 L 534 124 L 534 123 L 527 116 L 526 116 L 524 113 L 524 113 L 522 112 L 522 112 L 518 108 L 516 108 L 515 107 L 509 104 L 508 104 L 504 102 L 502 102 L 502 102 L 501 102 L 499 100 L 498 100 L 497 100 L 494 100 L 494 100 L 492 100 L 492 99 L 487 99 L 486 98 L 476 98 L 476 99 Z M 1226 120 L 1226 120 L 1226 200 L 1226 200 L 1357 200 L 1358 202 L 1358 412 L 1358 412 L 1359 420 L 1360 420 L 1360 423 L 1360 424 L 1360 426 L 1360 426 L 1360 428 L 1361 428 L 1361 430 L 1362 430 L 1362 434 L 1362 434 L 1362 435 L 1363 436 L 1363 436 L 1364 437 L 1364 438 L 1364 438 L 1365 442 L 1366 444 L 1366 445 L 1368 448 L 1368 448 L 1371 456 L 1372 456 L 1374 462 L 1376 462 L 1376 464 L 1378 466 L 1379 468 L 1382 472 L 1382 472 L 1386 476 L 1386 476 L 1398 488 L 1398 488 L 1400 489 L 1400 489 L 1402 490 L 1402 490 L 1404 492 L 1404 492 L 1408 495 L 1410 496 L 1413 498 L 1422 502 L 1423 502 L 1426 504 L 1426 504 L 1430 506 L 1430 506 L 1431 506 L 1432 506 L 1434 507 L 1436 507 L 1438 508 L 1439 508 L 1440 508 L 1441 508 L 1442 509 L 1444 509 L 1444 510 L 1446 510 L 1446 510 L 1448 510 L 1448 510 L 1451 510 L 1452 511 L 1453 511 L 1455 512 L 1456 514 L 1456 518 L 1456 518 L 1456 520 L 1457 520 L 1457 522 L 1458 524 L 1458 526 L 1459 528 L 1459 530 L 1460 532 L 1460 533 L 1461 535 L 1461 536 L 1462 537 L 1462 538 L 1462 538 L 1463 542 L 1464 544 L 1464 546 L 1465 547 L 1465 548 L 1466 550 L 1466 550 L 1467 552 L 1467 553 L 1468 554 L 1468 556 L 1469 557 L 1469 558 L 1471 562 L 1471 562 L 1478 576 L 1479 578 L 1480 581 L 1482 582 L 1484 586 L 1486 588 L 1486 590 L 1487 591 L 1487 592 L 1488 592 L 1488 593 L 1489 594 L 1489 594 L 1490 596 L 1492 599 L 1494 600 L 1494 601 L 1495 602 L 1495 603 L 1496 604 L 1496 605 L 1498 606 L 1498 607 L 1502 612 L 1502 612 L 1508 618 L 1508 618 L 1526 637 L 1526 637 L 1530 640 L 1530 640 L 1533 643 L 1534 643 L 1535 644 L 1536 644 L 1538 646 L 1538 646 L 1546 652 L 1546 652 L 1556 660 L 1558 660 L 1558 661 L 1562 663 L 1564 664 L 1567 666 L 1568 666 L 1588 676 L 1589 676 L 1590 677 L 1590 677 L 1591 678 L 1595 678 L 1599 680 L 1600 680 L 1600 681 L 1602 681 L 1602 682 L 1603 682 L 1604 682 L 1604 682 L 1605 682 L 1606 682 L 1608 684 L 1610 684 L 1610 684 L 1611 684 L 1612 684 L 1612 684 L 1614 686 L 1616 686 L 1617 686 L 1620 686 L 1622 688 L 1624 688 L 1624 688 L 1628 688 L 1629 689 L 1630 689 L 1631 690 L 1634 690 L 1634 690 L 1636 690 L 1636 690 L 1640 690 L 1640 691 L 1642 691 L 1642 692 L 1646 692 L 1647 692 L 1650 692 L 1650 692 L 1656 692 L 1657 693 L 1662 693 L 1662 694 L 1690 694 L 1690 693 L 1694 693 L 1695 692 L 1701 692 L 1702 692 L 1704 692 L 1704 692 L 1709 692 L 1710 691 L 1712 691 L 1712 690 L 1715 690 L 1716 690 L 1717 690 L 1718 690 L 1720 690 L 1721 689 L 1722 689 L 1723 688 L 1725 688 L 1726 688 L 1727 688 L 1728 688 L 1730 688 L 1732 686 L 1733 686 L 1735 686 L 1737 686 L 1738 685 L 1738 685 L 1739 684 L 1740 684 L 1742 684 L 1744 684 L 1744 683 L 1745 683 L 1746 682 L 1746 682 L 1747 682 L 1748 682 L 1748 682 L 1752 680 L 1754 680 L 1755 680 L 1756 678 L 1759 678 L 1762 676 L 1762 676 L 1764 676 L 1765 676 L 1768 674 L 1770 674 L 1784 666 L 1784 666 L 1788 664 L 1789 663 L 1790 662 L 1792 662 L 1796 660 L 1796 658 L 1797 658 L 1798 658 L 1798 658 L 1800 656 L 1800 656 L 1801 656 L 1802 656 L 1802 654 L 1806 652 L 1808 651 L 1808 651 L 1810 650 L 1810 650 L 1812 648 L 1812 648 L 1814 646 L 1814 646 L 1816 644 L 1816 644 L 1818 643 L 1818 643 L 1822 640 L 1822 640 L 1825 637 L 1826 637 L 1833 630 L 1834 630 L 1844 618 L 1844 618 L 1850 612 L 1850 611 L 1852 610 L 1852 609 L 1857 602 L 1858 600 L 1860 599 L 1860 598 L 1866 588 L 1867 587 L 1868 586 L 1868 584 L 1871 581 L 1882 558 L 1882 557 L 1885 552 L 1886 550 L 1888 546 L 1888 544 L 1888 544 L 1888 543 L 1888 542 L 1888 542 L 1889 541 L 1889 540 L 1890 540 L 1890 538 L 1890 536 L 1890 535 L 1891 534 L 1891 534 L 1892 533 L 1892 532 L 1892 530 L 1892 528 L 1893 528 L 1894 524 L 1894 522 L 1894 520 L 1895 520 L 1896 516 L 1896 516 L 1896 514 L 1896 514 L 1896 510 L 1897 510 L 1897 508 L 1898 508 L 1898 505 L 1898 504 L 1898 502 L 1898 502 L 1898 498 L 1899 498 L 1899 495 L 1900 494 L 1900 488 L 1900 488 L 1900 484 L 1900 484 L 1900 454 L 1900 453 L 1900 449 L 1900 448 L 1900 443 L 1899 442 L 1899 440 L 1898 440 L 1898 436 L 1898 435 L 1898 433 L 1898 432 L 1898 430 L 1897 429 L 1897 428 L 1896 427 L 1896 424 L 1896 424 L 1896 422 L 1896 422 L 1896 420 L 1895 419 L 1895 418 L 1894 417 L 1894 415 L 1894 413 L 1894 412 L 1892 410 L 1892 408 L 1892 407 L 1892 406 L 1892 406 L 1892 404 L 1890 402 L 1890 401 L 1890 400 L 1890 400 L 1890 399 L 1890 398 L 1889 398 L 1889 396 L 1888 396 L 1888 392 L 1886 390 L 1886 390 L 1886 388 L 1885 386 L 1882 380 L 1882 380 L 1880 376 L 1880 375 L 1874 361 L 1872 360 L 1871 356 L 1870 356 L 1868 352 L 1866 349 L 1866 348 L 1864 346 L 1864 346 L 1864 345 L 1864 344 L 1862 344 L 1862 343 L 1862 342 L 1860 338 L 1858 337 L 1858 336 L 1856 335 L 1856 334 L 1855 333 L 1855 332 L 1854 331 L 1854 330 L 1852 328 L 1852 328 L 1850 326 L 1850 326 L 1847 323 L 1847 322 L 1844 319 L 1844 318 L 1826 301 L 1826 301 L 1822 298 L 1822 298 L 1819 295 L 1818 295 L 1814 291 L 1814 291 L 1808 286 L 1806 286 L 1804 284 L 1804 284 L 1797 279 L 1796 278 L 1793 276 L 1788 274 L 1787 273 L 1784 272 L 1782 270 L 1772 265 L 1770 265 L 1767 263 L 1766 263 L 1764 262 L 1762 262 L 1760 260 L 1759 260 L 1755 258 L 1751 257 L 1750 256 L 1748 256 L 1748 256 L 1747 256 L 1746 255 L 1746 255 L 1744 254 L 1742 254 L 1740 253 L 1738 253 L 1736 252 L 1735 252 L 1733 251 L 1732 251 L 1731 250 L 1730 250 L 1729 250 L 1727 250 L 1725 249 L 1723 249 L 1722 248 L 1721 248 L 1720 248 L 1718 248 L 1717 248 L 1716 248 L 1715 247 L 1712 247 L 1712 246 L 1710 246 L 1709 246 L 1705 246 L 1704 246 L 1702 246 L 1702 245 L 1695 245 L 1694 244 L 1690 244 L 1690 244 L 1662 244 L 1662 244 L 1658 244 L 1657 245 L 1650 245 L 1650 246 L 1648 246 L 1647 246 L 1643 246 L 1642 246 L 1640 246 L 1640 247 L 1637 247 L 1636 248 L 1635 248 L 1634 248 L 1632 248 L 1631 248 L 1630 248 L 1629 249 L 1627 249 L 1626 250 L 1625 250 L 1624 250 L 1622 250 L 1620 251 L 1619 251 L 1618 252 L 1615 252 L 1613 253 L 1612 253 L 1611 254 L 1610 254 L 1610 254 L 1608 254 L 1608 254 L 1607 254 L 1606 255 L 1606 255 L 1605 256 L 1604 256 L 1604 256 L 1600 257 L 1598 258 L 1594 259 L 1589 262 L 1588 262 L 1586 263 L 1584 263 L 1581 265 L 1580 265 L 1571 270 L 1570 270 L 1566 272 L 1564 274 L 1562 274 L 1561 276 L 1557 278 L 1556 278 L 1556 278 L 1554 280 L 1554 280 L 1553 280 L 1552 280 L 1552 282 L 1551 282 L 1550 282 L 1550 282 L 1548 284 L 1545 286 L 1544 287 L 1543 287 L 1542 288 L 1541 288 L 1540 290 L 1539 290 L 1538 292 L 1537 292 L 1532 296 L 1532 296 L 1525 302 L 1524 302 L 1509 318 L 1509 318 L 1502 325 L 1502 326 L 1500 328 L 1500 328 L 1498 330 L 1498 330 L 1492 338 L 1492 338 L 1486 348 L 1485 350 L 1483 352 L 1482 354 L 1482 355 L 1480 358 L 1480 358 L 1478 362 L 1477 363 L 1476 364 L 1476 366 L 1474 368 L 1474 370 L 1470 377 L 1470 378 L 1469 380 L 1469 380 L 1467 384 L 1467 385 L 1466 386 L 1466 388 L 1464 390 L 1464 393 L 1463 395 L 1462 396 L 1462 396 L 1460 394 L 1460 393 L 1458 389 L 1458 388 L 1458 388 L 1458 386 L 1457 386 L 1457 385 L 1456 384 L 1456 384 L 1456 382 L 1456 380 L 1455 380 L 1455 378 L 1454 378 L 1454 376 L 1454 375 L 1454 374 L 1454 373 L 1454 371 L 1453 370 L 1453 368 L 1452 368 L 1452 362 L 1452 362 L 1452 359 L 1452 358 L 1452 357 L 1452 356 L 1452 304 L 1452 304 L 1452 202 L 1452 200 L 1644 200 L 1644 200 L 1652 200 L 1653 199 L 1654 199 L 1655 198 L 1656 198 L 1657 198 L 1658 198 L 1659 198 L 1660 198 L 1661 197 L 1662 197 L 1663 196 L 1666 196 L 1668 195 L 1668 195 L 1670 194 L 1671 194 L 1676 192 L 1678 191 L 1678 190 L 1684 188 L 1685 186 L 1686 186 L 1686 186 L 1690 184 L 1694 180 L 1694 180 L 1699 176 L 1700 176 L 1706 168 L 1706 168 L 1710 164 L 1710 164 L 1714 158 L 1714 156 L 1715 156 L 1720 146 L 1720 144 L 1721 143 L 1721 142 L 1722 142 L 1722 140 L 1722 140 L 1722 139 L 1722 138 L 1722 138 L 1724 136 L 1724 134 L 1724 132 L 1724 130 L 1726 128 L 1726 123 L 1726 122 L 1726 120 L 1726 120 L 1726 101 L 1726 100 L 1726 98 L 1726 98 L 1726 94 L 1724 92 L 1724 89 L 1724 87 L 1724 86 L 1723 85 L 1722 82 L 1722 80 L 1722 79 L 1720 78 L 1720 76 L 1714 64 L 1713 62 L 1712 60 L 1708 56 L 1708 54 L 1704 51 L 1704 50 L 1696 42 L 1696 42 L 1693 40 L 1692 40 L 1689 36 L 1688 36 L 1684 34 L 1683 33 L 1682 32 L 1672 27 L 1671 27 L 1667 25 L 1666 25 L 1664 24 L 1662 24 L 1660 23 L 1659 23 L 1658 22 L 1657 22 L 1656 22 L 1654 22 L 1654 22 L 1652 22 L 1652 21 L 1648 21 L 1648 20 L 1646 20 L 1646 20 L 1554 20 L 1553 20 L 1553 100 L 1554 100 L 1638 100 L 1640 102 L 1643 104 L 1643 104 L 1644 106 L 1644 106 L 1645 108 L 1645 111 L 1644 112 L 1644 114 L 1644 114 L 1644 115 L 1640 119 L 1638 120 Z M 1658 279 L 1664 279 L 1665 278 L 1682 278 L 1683 279 L 1690 279 L 1690 280 L 1696 280 L 1696 280 L 1699 280 L 1700 280 L 1703 280 L 1704 281 L 1709 282 L 1710 282 L 1714 282 L 1714 283 L 1718 284 L 1719 284 L 1722 284 L 1724 286 L 1728 286 L 1728 286 L 1730 286 L 1732 288 L 1733 288 L 1734 288 L 1736 288 L 1738 290 L 1739 290 L 1743 292 L 1744 292 L 1747 293 L 1748 293 L 1750 294 L 1750 294 L 1754 296 L 1755 296 L 1770 304 L 1771 304 L 1774 306 L 1774 306 L 1776 307 L 1778 309 L 1780 310 L 1781 310 L 1782 310 L 1782 312 L 1783 312 L 1784 312 L 1788 314 L 1789 316 L 1791 317 L 1793 319 L 1795 320 L 1800 324 L 1800 324 L 1804 328 L 1804 328 L 1818 340 L 1818 341 L 1826 350 L 1826 350 L 1830 354 L 1830 355 L 1834 360 L 1836 364 L 1838 366 L 1838 367 L 1839 368 L 1839 368 L 1841 371 L 1842 372 L 1842 374 L 1843 375 L 1844 376 L 1846 380 L 1847 382 L 1850 388 L 1850 388 L 1852 393 L 1852 394 L 1854 396 L 1854 398 L 1855 399 L 1856 403 L 1857 404 L 1857 406 L 1858 408 L 1858 409 L 1859 410 L 1859 412 L 1860 412 L 1860 416 L 1861 418 L 1861 419 L 1862 420 L 1862 421 L 1862 422 L 1862 424 L 1863 426 L 1863 428 L 1864 428 L 1864 430 L 1862 431 L 1846 431 L 1845 432 L 1830 432 L 1830 432 L 1814 432 L 1814 432 L 1798 432 L 1798 433 L 1782 433 L 1782 434 L 1767 434 L 1766 434 L 1751 434 L 1750 434 L 1736 434 L 1735 435 L 1725 435 L 1722 432 L 1722 432 L 1720 429 L 1720 428 L 1714 423 L 1714 423 L 1711 420 L 1710 420 L 1709 419 L 1708 419 L 1706 417 L 1699 414 L 1698 414 L 1696 412 L 1694 412 L 1692 411 L 1690 411 L 1689 410 L 1687 410 L 1686 410 L 1682 410 L 1682 410 L 1675 410 L 1674 410 L 1670 410 L 1669 410 L 1668 410 L 1667 411 L 1665 411 L 1663 412 L 1662 412 L 1661 412 L 1658 413 L 1650 417 L 1650 418 L 1648 419 L 1646 421 L 1645 421 L 1642 424 L 1642 424 L 1636 430 L 1636 430 L 1634 432 L 1634 432 L 1632 436 L 1628 444 L 1628 444 L 1628 445 L 1628 446 L 1627 446 L 1627 448 L 1626 450 L 1626 454 L 1625 454 L 1625 458 L 1624 458 L 1624 470 L 1625 470 L 1625 473 L 1626 474 L 1626 475 L 1626 476 L 1626 477 L 1626 478 L 1627 480 L 1628 482 L 1628 483 L 1630 488 L 1632 489 L 1633 492 L 1636 496 L 1636 496 L 1644 504 L 1644 504 L 1648 507 L 1648 507 L 1651 509 L 1652 510 L 1654 510 L 1658 512 L 1658 512 L 1660 514 L 1661 514 L 1663 514 L 1664 514 L 1665 515 L 1666 515 L 1667 516 L 1673 516 L 1674 516 L 1682 516 L 1682 516 L 1690 516 L 1692 514 L 1694 514 L 1694 514 L 1696 514 L 1698 512 L 1699 512 L 1705 510 L 1706 508 L 1708 508 L 1710 506 L 1710 506 L 1712 504 L 1712 504 L 1720 496 L 1720 496 L 1721 494 L 1721 494 L 1723 492 L 1724 490 L 1724 489 L 1730 479 L 1730 478 L 1731 476 L 1866 476 L 1866 477 L 1866 480 L 1866 481 L 1866 486 L 1866 486 L 1866 489 L 1865 490 L 1865 494 L 1864 494 L 1864 496 L 1864 496 L 1864 499 L 1864 500 L 1864 502 L 1863 502 L 1863 504 L 1862 505 L 1862 506 L 1862 507 L 1862 509 L 1862 510 L 1862 511 L 1861 512 L 1861 513 L 1860 514 L 1860 517 L 1859 519 L 1859 520 L 1858 522 L 1858 524 L 1858 524 L 1858 526 L 1857 526 L 1857 527 L 1856 528 L 1856 528 L 1856 529 L 1855 533 L 1853 537 L 1852 540 L 1851 542 L 1851 543 L 1850 546 L 1850 546 L 1847 551 L 1847 552 L 1845 556 L 1844 557 L 1842 562 L 1841 562 L 1840 565 L 1839 566 L 1837 570 L 1836 571 L 1836 572 L 1835 572 L 1835 573 L 1834 574 L 1834 574 L 1833 576 L 1833 576 L 1832 577 L 1830 580 L 1828 582 L 1828 584 L 1826 586 L 1826 586 L 1822 591 L 1822 592 L 1819 594 L 1819 594 L 1814 599 L 1814 600 L 1804 610 L 1804 610 L 1800 614 L 1799 614 L 1796 616 L 1796 616 L 1792 620 L 1791 620 L 1788 624 L 1786 624 L 1784 626 L 1784 626 L 1778 630 L 1776 630 L 1774 632 L 1769 635 L 1768 636 L 1762 639 L 1760 640 L 1760 640 L 1754 643 L 1753 643 L 1750 645 L 1748 645 L 1744 647 L 1740 648 L 1739 649 L 1738 649 L 1736 650 L 1734 650 L 1733 651 L 1732 651 L 1730 652 L 1728 652 L 1726 653 L 1724 653 L 1722 654 L 1720 654 L 1720 654 L 1718 654 L 1718 655 L 1716 655 L 1715 656 L 1714 656 L 1713 656 L 1710 656 L 1710 656 L 1708 656 L 1708 657 L 1704 657 L 1704 658 L 1701 658 L 1700 658 L 1696 658 L 1696 658 L 1691 658 L 1690 659 L 1682 659 L 1681 660 L 1667 660 L 1666 659 L 1658 659 L 1658 658 L 1653 658 L 1652 658 L 1648 658 L 1648 658 L 1646 658 L 1645 657 L 1642 657 L 1642 656 L 1640 656 L 1640 656 L 1637 656 L 1636 656 L 1635 656 L 1634 655 L 1632 655 L 1632 654 L 1628 654 L 1628 654 L 1625 653 L 1623 652 L 1622 652 L 1620 651 L 1618 651 L 1616 650 L 1616 650 L 1615 650 L 1611 648 L 1610 648 L 1608 648 L 1607 646 L 1606 646 L 1604 645 L 1602 645 L 1586 637 L 1586 636 L 1583 635 L 1580 633 L 1579 632 L 1578 632 L 1578 632 L 1576 630 L 1576 630 L 1575 630 L 1574 630 L 1574 628 L 1573 628 L 1572 628 L 1568 626 L 1567 624 L 1566 624 L 1565 622 L 1564 622 L 1562 620 L 1562 620 L 1560 619 L 1560 619 L 1558 616 L 1557 616 L 1554 614 L 1554 614 L 1536 596 L 1536 595 L 1530 590 L 1530 589 L 1529 588 L 1529 587 L 1527 585 L 1527 584 L 1524 581 L 1524 580 L 1516 569 L 1514 564 L 1512 563 L 1512 560 L 1510 560 L 1504 546 L 1504 546 L 1502 543 L 1502 542 L 1501 540 L 1501 538 L 1499 534 L 1498 532 L 1498 530 L 1498 530 L 1496 528 L 1496 526 L 1496 524 L 1496 523 L 1494 521 L 1494 520 L 1494 518 L 1494 516 L 1492 514 L 1492 512 L 1492 510 L 1492 508 L 1491 508 L 1491 506 L 1490 506 L 1490 503 L 1490 502 L 1490 501 L 1490 500 L 1490 498 L 1489 497 L 1489 494 L 1488 494 L 1488 486 L 1488 486 L 1488 480 L 1487 480 L 1487 469 L 1486 468 L 1486 462 L 1487 462 L 1487 452 L 1488 452 L 1488 446 L 1488 446 L 1488 438 L 1489 438 L 1490 433 L 1490 432 L 1490 431 L 1490 430 L 1490 428 L 1491 428 L 1491 426 L 1492 426 L 1492 424 L 1492 422 L 1492 420 L 1494 418 L 1494 416 L 1494 414 L 1494 413 L 1495 412 L 1495 412 L 1496 411 L 1496 407 L 1498 406 L 1498 402 L 1500 400 L 1500 399 L 1502 396 L 1502 394 L 1502 393 L 1502 392 L 1509 379 L 1510 378 L 1512 374 L 1514 372 L 1514 370 L 1516 368 L 1516 368 L 1516 367 L 1516 366 L 1518 366 L 1518 365 L 1518 364 L 1518 364 L 1520 362 L 1522 359 L 1523 358 L 1523 357 L 1524 356 L 1524 355 L 1526 354 L 1526 353 L 1528 351 L 1528 350 L 1530 348 L 1530 348 L 1538 340 L 1538 339 L 1547 330 L 1548 330 L 1553 324 L 1554 324 L 1559 320 L 1560 320 L 1564 316 L 1566 315 L 1567 314 L 1569 312 L 1570 311 L 1571 311 L 1574 309 L 1575 308 L 1579 306 L 1582 304 L 1582 304 L 1585 302 L 1586 302 L 1590 300 L 1592 298 L 1596 296 L 1596 296 L 1601 294 L 1602 294 L 1604 292 L 1606 292 L 1607 292 L 1608 292 L 1610 290 L 1610 290 L 1614 288 L 1616 288 L 1618 288 L 1619 288 L 1620 286 L 1622 286 L 1622 286 L 1626 286 L 1628 284 L 1629 284 L 1630 284 L 1631 284 L 1632 284 L 1633 284 L 1634 283 L 1635 283 L 1636 282 L 1638 282 L 1638 282 L 1640 282 L 1640 282 L 1642 282 L 1643 281 L 1645 281 L 1646 280 L 1649 280 L 1650 280 L 1652 280 L 1653 280 L 1658 280 Z"/></svg>