<svg xmlns="http://www.w3.org/2000/svg" viewBox="0 0 2172 724" preserveAspectRatio="xMidYMax meet" fill="#16314A" fill-rule="evenodd"><path d="M 2 580 L 2 580 L 2169 580 L 2170 580 L 2169 578 L 2164 572 L 2158 566 L 2152 565 L 2150 564 L 2150 552 L 2151 552 L 2150 550 L 2148 549 L 2145 547 L 2142 546 L 2133 542 L 2126 546 L 2124 546 L 2120 547 L 2118 547 L 2118 548 L 2115 550 L 2112 548 L 2112 540 L 2114 538 L 2113 521 L 2115 518 L 2115 517 L 2111 512 L 2106 502 L 2104 492 L 2103 493 L 2103 496 L 2102 500 L 2101 503 L 2100 504 L 2096 512 L 2092 516 L 2092 518 L 2092 519 L 2094 520 L 2094 525 L 2092 526 L 2084 526 L 2079 524 L 2078 523 L 2074 523 L 2072 524 L 2069 526 L 2062 524 L 2038 515 L 2032 512 L 2025 509 L 2020 506 L 2002 498 L 1992 495 L 1977 491 L 1965 490 L 1964 489 L 1942 488 L 1942 489 L 1934 489 L 1933 490 L 1922 491 L 1900 497 L 1886 502 L 1877 506 L 1876 506 L 1875 506 L 1875 502 L 1874 501 L 1874 372 L 1874 372 L 1868 372 L 1866 370 L 1866 362 L 1864 360 L 1856 360 L 1854 360 L 1854 354 L 1846 354 L 1845 354 L 1828 354 L 1828 354 L 1824 354 L 1824 356 L 1824 360 L 1822 361 L 1812 361 L 1812 362 L 1812 371 L 1811 372 L 1804 372 L 1804 373 L 1804 530 L 1800 533 L 1798 533 L 1798 532 L 1798 492 L 1792 491 L 1792 489 L 1790 488 L 1786 488 L 1782 491 L 1780 490 L 1780 484 L 1781 483 L 1781 478 L 1780 478 L 1781 423 L 1780 422 L 1778 420 L 1777 414 L 1775 412 L 1774 410 L 1769 401 L 1769 398 L 1768 396 L 1754 396 L 1753 399 L 1753 401 L 1752 402 L 1750 406 L 1748 409 L 1747 413 L 1745 415 L 1744 420 L 1743 422 L 1742 422 L 1741 423 L 1741 430 L 1740 430 L 1741 490 L 1740 492 L 1738 492 L 1738 491 L 1738 486 L 1739 484 L 1738 482 L 1738 479 L 1734 476 L 1734 475 L 1730 470 L 1726 469 L 1724 466 L 1722 469 L 1698 469 L 1697 468 L 1697 465 L 1696 464 L 1693 463 L 1692 464 L 1688 464 L 1686 462 L 1686 460 L 1686 456 L 1686 454 L 1686 453 L 1682 449 L 1682 434 L 1684 433 L 1684 432 L 1682 429 L 1682 426 L 1680 425 L 1680 419 L 1677 410 L 1675 406 L 1670 401 L 1667 400 L 1666 396 L 1665 394 L 1666 384 L 1664 382 L 1664 379 L 1662 377 L 1662 372 L 1662 370 L 1662 366 L 1662 366 L 1660 366 L 1661 370 L 1660 372 L 1660 378 L 1658 380 L 1658 382 L 1657 384 L 1658 394 L 1656 397 L 1656 400 L 1651 402 L 1646 408 L 1644 413 L 1644 415 L 1643 418 L 1643 426 L 1642 426 L 1640 427 L 1640 430 L 1638 432 L 1640 436 L 1640 450 L 1639 451 L 1638 451 L 1636 452 L 1636 454 L 1635 456 L 1636 459 L 1635 462 L 1632 464 L 1626 464 L 1624 465 L 1624 468 L 1623 469 L 1600 469 L 1599 466 L 1598 466 L 1598 468 L 1597 468 L 1591 472 L 1588 474 L 1586 478 L 1584 478 L 1584 480 L 1584 481 L 1582 483 L 1584 490 L 1584 500 L 1582 503 L 1581 504 L 1578 503 L 1578 490 L 1579 490 L 1579 405 L 1578 404 L 1570 404 L 1568 402 L 1568 398 L 1568 397 L 1562 397 L 1561 396 L 1549 397 L 1548 398 L 1548 404 L 1547 404 L 1539 404 L 1538 405 L 1538 484 L 1536 486 L 1532 486 L 1532 484 L 1532 433 L 1531 432 L 1527 432 L 1526 432 L 1526 424 L 1525 424 L 1525 393 L 1526 392 L 1525 392 L 1525 366 L 1526 362 L 1526 356 L 1525 356 L 1523 355 L 1502 335 L 1502 333 L 1502 333 L 1500 336 L 1482 353 L 1477 356 L 1477 362 L 1478 364 L 1478 431 L 1476 432 L 1472 432 L 1472 433 L 1472 439 L 1472 440 L 1472 469 L 1471 470 L 1468 470 L 1468 470 L 1464 470 L 1464 469 L 1464 429 L 1463 428 L 1456 428 L 1455 427 L 1454 420 L 1453 414 L 1441 414 L 1440 414 L 1440 417 L 1440 418 L 1440 426 L 1438 428 L 1427 428 L 1426 428 L 1425 426 L 1425 418 L 1424 414 L 1412 414 L 1410 418 L 1410 424 L 1410 428 L 1408 428 L 1402 428 L 1402 429 L 1402 451 L 1400 452 L 1391 452 L 1390 450 L 1390 348 L 1390 348 L 1390 336 L 1390 336 L 1375 336 L 1374 334 L 1374 330 L 1373 328 L 1360 328 L 1358 326 L 1358 323 L 1357 323 L 1357 326 L 1355 328 L 1354 326 L 1354 320 L 1353 320 L 1352 322 L 1352 326 L 1352 326 L 1352 327 L 1350 320 L 1350 310 L 1350 309 L 1348 309 L 1348 320 L 1346 328 L 1345 328 L 1344 327 L 1344 324 L 1343 324 L 1343 321 L 1342 322 L 1342 327 L 1342 328 L 1340 326 L 1340 324 L 1340 324 L 1340 327 L 1338 328 L 1328 328 L 1326 330 L 1326 334 L 1326 336 L 1309 336 L 1308 337 L 1308 347 L 1308 348 L 1308 469 L 1307 470 L 1300 470 L 1298 470 L 1298 468 L 1298 467 L 1298 368 L 1298 368 L 1298 365 L 1298 362 L 1298 354 L 1298 354 L 1298 351 L 1298 350 L 1298 294 L 1298 293 L 1292 293 L 1290 292 L 1290 240 L 1288 238 L 1288 236 L 1288 235 L 1284 234 L 1282 234 L 1282 218 L 1284 216 L 1289 212 L 1289 210 L 1288 210 L 1269 210 L 1268 209 L 1258 208 L 1256 207 L 1255 208 L 1252 208 L 1251 210 L 1224 210 L 1222 211 L 1222 212 L 1226 214 L 1230 218 L 1230 221 L 1229 222 L 1229 233 L 1228 234 L 1223 236 L 1223 238 L 1221 240 L 1221 292 L 1220 292 L 1218 293 L 1214 293 L 1213 295 L 1214 296 L 1214 304 L 1213 304 L 1213 356 L 1214 356 L 1214 360 L 1213 361 L 1213 390 L 1214 390 L 1213 393 L 1213 533 L 1212 534 L 1208 534 L 1206 533 L 1206 528 L 1207 528 L 1207 438 L 1208 438 L 1208 427 L 1206 425 L 1206 422 L 1206 412 L 1207 410 L 1207 408 L 1208 406 L 1208 401 L 1206 396 L 1205 393 L 1204 394 L 1204 398 L 1203 398 L 1202 398 L 1201 392 L 1200 390 L 1199 387 L 1197 382 L 1197 375 L 1195 370 L 1192 366 L 1191 362 L 1190 352 L 1190 356 L 1190 362 L 1184 376 L 1184 384 L 1182 387 L 1182 389 L 1180 392 L 1180 398 L 1178 399 L 1176 398 L 1176 394 L 1176 394 L 1174 398 L 1172 402 L 1172 407 L 1174 412 L 1174 422 L 1174 424 L 1174 426 L 1172 428 L 1170 428 L 1169 427 L 1169 335 L 1168 332 L 1168 332 L 1159 332 L 1158 332 L 1157 330 L 1157 322 L 1156 322 L 1146 322 L 1145 321 L 1145 248 L 1144 246 L 1136 246 L 1136 244 L 1135 242 L 1132 240 L 1130 240 L 1121 240 L 1120 241 L 1096 241 L 1094 240 L 1092 240 L 1090 241 L 1088 241 L 1087 242 L 1087 244 L 1086 246 L 1079 246 L 1078 246 L 1078 426 L 1076 428 L 1063 428 L 1062 429 L 1062 443 L 1061 444 L 1060 444 L 1058 442 L 1058 345 L 1057 344 L 1038 344 L 1037 344 L 1036 342 L 1036 338 L 1037 336 L 1039 336 L 1040 334 L 1040 332 L 1038 330 L 1012 330 L 1012 331 L 998 331 L 998 332 L 998 336 L 1000 336 L 1002 337 L 1002 344 L 1000 344 L 982 344 L 980 346 L 980 504 L 979 505 L 978 505 L 976 504 L 976 484 L 976 483 L 974 482 L 970 482 L 968 481 L 968 478 L 967 476 L 967 468 L 966 467 L 966 302 L 967 302 L 966 277 L 964 276 L 962 276 L 962 252 L 960 250 L 958 251 L 956 250 L 956 226 L 956 225 L 956 222 L 953 220 L 953 207 L 951 204 L 948 204 L 946 202 L 946 198 L 945 196 L 945 192 L 944 191 L 937 188 L 930 185 L 924 185 L 923 186 L 910 186 L 910 187 L 910 192 L 907 194 L 907 202 L 906 204 L 902 204 L 900 206 L 900 219 L 898 220 L 896 224 L 896 250 L 894 251 L 892 250 L 890 252 L 890 276 L 889 276 L 886 276 L 885 278 L 885 438 L 884 438 L 880 438 L 879 437 L 879 434 L 880 432 L 880 431 L 878 430 L 874 429 L 873 428 L 870 427 L 868 429 L 864 429 L 862 427 L 862 389 L 862 388 L 862 378 L 860 375 L 860 361 L 862 359 L 862 354 L 860 350 L 860 345 L 855 339 L 845 324 L 841 320 L 841 316 L 840 313 L 840 302 L 840 302 L 840 296 L 839 296 L 838 266 L 838 266 L 838 298 L 837 298 L 837 304 L 836 304 L 836 320 L 834 322 L 834 322 L 832 324 L 820 342 L 819 344 L 818 351 L 817 354 L 818 376 L 817 376 L 817 388 L 816 389 L 816 440 L 814 442 L 812 442 L 810 444 L 810 448 L 812 450 L 812 454 L 810 454 L 807 454 L 806 454 L 806 194 L 806 194 L 806 192 L 806 168 L 804 167 L 802 167 L 800 166 L 788 166 L 784 162 L 782 164 L 780 164 L 779 164 L 778 164 L 776 162 L 776 160 L 776 128 L 776 130 L 775 130 L 775 160 L 774 164 L 772 164 L 769 162 L 766 164 L 758 164 L 757 163 L 756 160 L 756 159 L 755 160 L 755 162 L 753 164 L 751 164 L 750 162 L 750 160 L 749 162 L 748 164 L 745 164 L 744 164 L 742 162 L 742 156 L 742 156 L 741 162 L 738 164 L 738 166 L 737 167 L 728 167 L 724 168 L 719 171 L 719 193 L 720 194 L 719 196 L 719 382 L 716 384 L 710 384 L 708 382 L 708 380 L 707 378 L 707 376 L 706 372 L 706 370 L 702 366 L 702 365 L 693 365 L 692 366 L 688 366 L 686 365 L 685 366 L 685 368 L 683 374 L 683 378 L 682 380 L 682 382 L 680 384 L 672 384 L 670 385 L 672 388 L 672 411 L 672 412 L 672 476 L 670 478 L 670 486 L 670 486 L 665 487 L 663 485 L 663 282 L 664 281 L 664 266 L 663 264 L 662 264 L 642 264 L 642 262 L 642 259 L 639 258 L 625 258 L 621 258 L 620 255 L 601 255 L 600 256 L 600 262 L 599 264 L 579 264 L 578 264 L 578 421 L 576 422 L 574 422 L 572 419 L 568 419 L 566 420 L 566 420 L 565 422 L 554 422 L 553 424 L 554 429 L 554 430 L 554 477 L 552 478 L 548 478 L 548 474 L 548 464 L 548 463 L 548 459 L 548 458 L 548 369 L 548 367 L 548 346 L 548 346 L 544 345 L 542 343 L 542 341 L 539 340 L 536 338 L 512 338 L 508 340 L 504 340 L 500 342 L 487 342 L 486 342 L 464 342 L 464 344 L 462 345 L 450 345 L 449 346 L 449 362 L 448 363 L 448 366 L 449 367 L 449 484 L 448 484 L 444 482 L 440 482 L 438 484 L 436 484 L 434 484 L 434 482 L 433 470 L 432 466 L 431 448 L 430 447 L 430 442 L 430 441 L 430 431 L 430 430 L 430 418 L 429 416 L 428 410 L 428 410 L 426 412 L 426 412 L 425 407 L 421 401 L 420 395 L 420 394 L 420 389 L 420 388 L 420 395 L 419 396 L 418 401 L 416 405 L 414 408 L 414 411 L 412 412 L 412 410 L 410 414 L 410 419 L 410 420 L 410 422 L 410 434 L 410 435 L 408 462 L 408 462 L 407 472 L 406 472 L 406 480 L 405 484 L 405 490 L 404 490 L 383 490 L 382 489 L 382 468 L 380 466 L 376 466 L 374 464 L 374 463 L 373 453 L 370 450 L 370 434 L 371 433 L 372 432 L 372 430 L 370 427 L 370 424 L 369 422 L 370 409 L 368 407 L 368 404 L 367 403 L 366 406 L 366 407 L 364 406 L 362 402 L 358 394 L 352 389 L 348 386 L 346 384 L 346 380 L 344 378 L 342 374 L 342 368 L 344 366 L 344 364 L 342 362 L 342 360 L 340 354 L 340 349 L 339 346 L 339 344 L 340 342 L 338 340 L 337 342 L 337 342 L 338 344 L 338 346 L 337 348 L 337 356 L 335 358 L 334 362 L 334 364 L 334 366 L 334 368 L 334 374 L 334 376 L 334 378 L 331 380 L 332 384 L 330 386 L 324 390 L 318 396 L 312 407 L 310 406 L 310 403 L 309 404 L 307 411 L 308 414 L 308 422 L 307 424 L 307 428 L 304 430 L 304 432 L 306 434 L 306 448 L 306 452 L 304 454 L 303 461 L 302 463 L 299 462 L 300 459 L 298 454 L 297 450 L 296 450 L 296 450 L 296 452 L 294 454 L 293 448 L 288 443 L 288 439 L 287 438 L 287 442 L 282 448 L 281 452 L 280 452 L 278 450 L 278 451 L 278 454 L 276 458 L 276 460 L 278 464 L 277 466 L 276 466 L 264 467 L 260 464 L 259 467 L 256 470 L 254 468 L 254 452 L 256 450 L 256 448 L 254 445 L 254 439 L 252 439 L 252 441 L 251 442 L 250 440 L 250 436 L 244 430 L 243 431 L 239 435 L 238 438 L 237 442 L 236 442 L 234 440 L 234 440 L 234 442 L 232 444 L 232 446 L 231 448 L 231 450 L 233 452 L 234 454 L 234 467 L 233 468 L 233 471 L 232 472 L 232 478 L 231 480 L 228 481 L 231 484 L 232 500 L 232 500 L 232 518 L 231 518 L 232 520 L 232 525 L 231 526 L 230 530 L 230 532 L 227 532 L 226 530 L 226 516 L 226 515 L 224 514 L 220 515 L 218 514 L 218 509 L 217 508 L 214 508 L 207 506 L 200 508 L 198 508 L 197 509 L 197 513 L 196 514 L 188 515 L 188 516 L 188 540 L 187 542 L 178 542 L 176 539 L 176 532 L 175 532 L 173 532 L 172 539 L 170 542 L 132 542 L 128 538 L 128 533 L 128 532 L 128 538 L 124 542 L 86 542 L 84 539 L 84 536 L 83 534 L 84 532 L 82 532 L 83 534 L 82 538 L 80 542 L 42 542 L 40 541 L 38 540 L 38 532 L 36 532 L 36 532 L 36 539 L 32 542 L 30 545 L 30 552 L 30 552 L 30 556 L 28 564 L 28 564 L 20 564 L 13 566 L 6 574 Z M 132 561 L 134 557 L 138 553 L 142 550 L 148 549 L 155 550 L 160 552 L 166 556 L 168 560 L 168 564 L 167 564 L 134 564 L 132 562 Z M 88 560 L 90 556 L 96 551 L 101 550 L 108 549 L 114 550 L 118 553 L 122 557 L 124 560 L 124 562 L 122 564 L 88 564 L 88 564 Z M 42 560 L 45 556 L 50 552 L 56 550 L 62 549 L 68 550 L 74 554 L 78 560 L 79 562 L 78 564 L 74 564 L 74 565 L 72 565 L 71 564 L 44 564 L 42 562 Z M 2052 538 L 2052 540 L 2052 550 L 2052 551 L 2044 551 L 2042 548 L 2042 544 L 2048 540 Z M 1906 538 L 1907 536 L 2020 536 L 2022 538 L 2032 550 L 2032 552 L 2030 554 L 2026 554 L 2024 555 L 2020 555 L 2018 554 L 2014 554 L 2008 556 L 2006 556 L 2004 555 L 2000 555 L 1996 558 L 1992 558 L 1988 559 L 1986 557 L 1983 556 L 1980 557 L 1977 559 L 1974 560 L 1970 560 L 1966 558 L 1961 558 L 1960 559 L 1956 559 L 1953 558 L 1949 558 L 1948 559 L 1943 559 L 1940 558 L 1938 554 L 1935 554 L 1932 552 L 1924 552 L 1920 554 L 1919 554 L 1914 554 L 1913 555 L 1910 555 L 1910 554 L 1910 540 Z M 2040 520 L 2042 520 L 2049 522 L 2050 524 L 2049 526 L 2050 525 L 2052 528 L 2052 530 L 2051 532 L 2050 532 L 2049 531 L 2050 530 L 2047 532 L 2042 532 L 2038 529 L 2038 523 L 2039 522 L 2041 524 L 2042 528 L 2044 528 L 2044 529 L 2046 529 L 2046 528 L 2044 528 L 2042 524 Z M 2020 510 L 2026 512 L 2028 514 L 2028 516 L 2026 519 L 2028 517 L 2030 517 L 2032 520 L 2032 523 L 2033 522 L 2034 523 L 2035 530 L 2034 532 L 2030 532 L 2028 531 L 2028 530 L 2026 530 L 2024 528 L 2025 526 L 2024 522 L 2022 518 L 2020 514 L 2020 512 L 2020 512 Z M 2002 504 L 2003 504 L 2006 506 L 2006 512 L 2006 512 L 2006 514 L 2006 515 L 2004 515 L 2002 514 L 1997 512 L 1996 510 Z M 2006 504 L 2008 504 L 2012 506 L 2013 506 L 2014 508 L 2012 511 L 2014 510 L 2016 510 L 2016 511 L 2016 512 L 2018 512 L 2020 516 L 2022 519 L 2022 522 L 2024 526 L 2022 526 L 2019 524 L 2013 520 L 2011 519 L 2008 516 L 2008 515 L 2010 512 L 2008 512 L 2007 512 L 2005 506 L 2005 505 Z M 1884 530 L 1891 526 L 1894 522 L 1897 520 L 1899 520 L 1900 518 L 1901 517 L 1904 515 L 1906 515 L 1907 514 L 1909 514 L 1910 512 L 1912 510 L 1920 508 L 1922 510 L 1922 508 L 1924 506 L 1929 506 L 1931 504 L 1936 506 L 1937 504 L 1942 503 L 1943 502 L 1948 503 L 1948 505 L 1952 508 L 1950 504 L 1952 502 L 1953 502 L 1954 503 L 1960 503 L 1962 504 L 1967 504 L 1972 506 L 1976 508 L 1979 508 L 1980 510 L 1980 511 L 1982 510 L 1988 511 L 1990 512 L 1992 515 L 1994 515 L 2000 518 L 2003 521 L 2004 521 L 2008 524 L 2009 524 L 2016 531 L 2014 532 L 2009 532 L 2008 531 L 2006 532 L 1998 532 L 1996 530 L 1994 532 L 1992 532 L 1984 532 L 1982 530 L 1978 532 L 1970 532 L 1967 530 L 1964 530 L 1962 532 L 1954 532 L 1950 530 L 1948 530 L 1946 532 L 1938 532 L 1937 531 L 1934 531 L 1933 532 L 1924 532 L 1922 530 L 1920 531 L 1919 531 L 1918 532 L 1910 532 L 1908 531 L 1905 531 L 1904 532 L 1898 532 L 1892 528 L 1889 530 L 1888 530 L 1886 532 L 1884 532 Z M 1994 500 L 1996 500 L 2002 502 L 2002 504 L 1996 509 L 1994 506 L 1994 504 L 1993 504 L 1993 500 Z M 1917 504 L 1917 505 L 1916 506 L 1912 508 L 1909 508 L 1908 509 L 1906 509 L 1905 510 L 1904 510 L 1902 509 L 1903 506 L 1902 506 L 1902 509 L 1902 510 L 1900 513 L 1898 512 L 1894 508 L 1898 513 L 1898 514 L 1893 517 L 1892 516 L 1890 518 L 1886 521 L 1884 522 L 1883 523 L 1880 526 L 1878 526 L 1876 528 L 1875 528 L 1874 527 L 1874 519 L 1876 514 L 1878 512 L 1880 514 L 1883 517 L 1884 516 L 1884 514 L 1883 515 L 1880 510 L 1882 508 L 1887 506 L 1888 506 L 1889 507 L 1888 510 L 1890 507 L 1892 506 L 1893 504 L 1896 503 L 1897 504 L 1898 504 L 1898 502 L 1900 500 L 1904 499 L 1906 499 L 1908 500 L 1912 500 L 1914 502 Z M 1950 493 L 1951 492 L 1958 492 L 1958 492 L 1958 494 L 1956 496 L 1958 494 L 1960 494 L 1962 494 L 1962 496 L 1962 496 L 1962 494 L 1963 492 L 1970 493 L 1974 496 L 1974 498 L 1974 498 L 1974 495 L 1975 494 L 1979 494 L 1984 496 L 1986 498 L 1985 498 L 1988 498 L 1989 499 L 1989 500 L 1986 504 L 1991 500 L 1992 501 L 1993 508 L 1992 508 L 1990 508 L 1986 506 L 1986 505 L 1984 506 L 1982 503 L 1980 504 L 1978 504 L 1976 502 L 1978 502 L 1978 500 L 1978 500 L 1974 502 L 1972 502 L 1966 501 L 1964 500 L 1966 498 L 1964 498 L 1964 500 L 1962 500 L 1960 500 L 1954 500 L 1953 499 L 1954 498 L 1952 498 L 1951 498 L 1950 498 Z M 1950 493 L 1950 498 L 1949 498 L 1946 498 L 1945 498 L 1944 500 L 1940 500 L 1939 501 L 1938 501 L 1936 500 L 1934 501 L 1930 500 L 1928 502 L 1923 504 L 1920 504 L 1920 504 L 1918 503 L 1918 501 L 1915 502 L 1911 498 L 1911 498 L 1912 496 L 1918 495 L 1920 496 L 1918 500 L 1919 498 L 1921 498 L 1921 497 L 1923 494 L 1931 492 L 1934 493 L 1936 494 L 1938 492 L 1940 492 L 1948 492 Z"/></svg>